<?xml version="1.0" encoding="UTF-8" standalone="no"?>
<svg
   xmlns:dc="http://purl.org/dc/elements/1.1/"
   xmlns:cc="http://creativecommons.org/ns#"
   xmlns:rdf="http://www.w3.org/1999/02/22-rdf-syntax-ns#"
   xmlns:svg="http://www.w3.org/2000/svg"
   xmlns="http://www.w3.org/2000/svg"
   xmlns:sodipodi="http://sodipodi.sourceforge.net/DTD/sodipodi-0.dtd"
   xmlns:inkscape="http://www.inkscape.org/namespaces/inkscape"
   width="16px"
   height="16px"
   viewBox="0 0 16 16"
   version="1.1"
   id="svg11"
   sodipodi:docname="search.svg"
   inkscape:version="0.92.4 (5da689c313, 2019-01-14)">
  <metadata
     id="metadata15">
    <rdf:RDF>
      <cc:Work
         rdf:about="">
        <dc:format>image/svg+xml</dc:format>
        <dc:type
           rdf:resource="http://purl.org/dc/dcmitype/StillImage" />
      </cc:Work>
    </rdf:RDF>
  </metadata>
  <sodipodi:namedview
     pagecolor="#ffffff"
     bordercolor="#666666"
     borderopacity="1"
     objecttolerance="10"
     gridtolerance="10"
     guidetolerance="10"
     inkscape:pageopacity="0"
     inkscape:pageshadow="2"
     inkscape:window-width="1366"
     inkscape:window-height="745"
     id="namedview13"
     showgrid="false"
     inkscape:zoom="14.75"
     inkscape:cx="8"
     inkscape:cy="8"
     inkscape:window-x="-8"
     inkscape:window-y="-8"
     inkscape:window-maximized="1"
     inkscape:current-layer="svg11" />
  <!-- Generator: Sketch 40.1 (33804) - http://www.bohemiancoding.com/sketch -->
  <title
     id="title2">Shape</title>
  <desc
     id="desc4">Created with Sketch.</desc>
  <defs
     id="defs6" />
  <g
     id="Page-1"
     stroke="none"
     stroke-width="1"
     fill="none"
     fill-rule="evenodd"
     opacity="0.227028918">
    <g
       id="Desktop-Copy"
       transform="translate(-1056.000000, -215.000000)"
       fill="#000000">
      <path
         d="M1071.89258,230.111648 L1067.68711,225.905991 C1068.66447,224.751345 1069.25486,223.2587 1069.25486,221.627431 C1069.25486,217.967248 1066.28761,215 1062.62743,215 C1058.96725,215 1056,217.967248 1056,221.627431 C1056,225.287614 1058.96725,228.254863 1062.62743,228.254863 C1064.2587,228.254863 1065.75134,227.664469 1066.90599,226.686923 L1071.11165,230.89258 C1071.25487,231.035807 1071.48923,231.035807 1071.63227,230.89258 L1071.89258,230.63227 C1072.03581,230.489043 1072.03581,230.254874 1071.89258,230.111648 L1071.89258,230.111648 Z M1057.10457,221.627431 C1057.10457,218.582127 1059.58213,216.104572 1062.62743,216.104572 C1065.67274,216.104572 1068.15029,218.582127 1068.15029,221.627431 C1068.15029,224.672736 1065.67274,227.150291 1062.62743,227.150291 C1059.58213,227.150291 1057.10457,224.672736 1057.10457,221.627431 L1057.10457,221.627431 Z"
         id="Shape" />
    </g>
  </g>
  <path
     style="stroke-width:0.06779661"
     d="m 13.032959,13.814969 -2.138044,-2.130793 -0.406779,0.296729 c -0.5933123,0.432797 -1.4380574,0.830652 -2.1890092,1.03097 -0.559276,0.149187 -0.8065126,0.176234 -1.6414997,0.179574 -1.1801297,0.0047 -1.8515369,-0.137291 -2.8215701,-0.5968 C 3.0645138,12.229165 2.7075102,11.986582 2.1057275,11.41889 -0.06626391,9.3699437 -0.59575744,6.1937877 0.79497851,3.5563902 2.6373466,0.06251559 7.1253532,-1.0470417 10.381187,1.1864186 c 0.461973,0.3169074 1.277608,1.1197101 1.607972,1.5826742 0.416082,0.5830869 0.874528,1.5830311 1.054202,2.2993855 0.226335,0.9023875 0.21256,2.3157678 -0.03149,3.2306485 -0.200318,0.7509518 -0.598173,1.5956969 -1.03097,2.1890092 l -0.296729,0.406779 2.130793,2.138044 c 2.349773,2.357768 2.341692,2.346399 1.940643,2.730628 -0.393857,0.377339 -0.37585,0.390227 -2.722653,-1.948618 z M 8.1830508,11.946135 c 1.8603222,-0.593993 3.1858812,-1.928716 3.7732872,-3.7993716 0.137135,-0.4367207 0.158916,-0.6454698 0.158916,-1.5230346 0,-0.8775645 -0.02178,-1.086314 -0.158916,-1.5230344 C 11.453085,3.498032 10.428128,2.3054386 8.9566949,1.6104445 8.136301,1.2229523 7.6994386,1.1339273 6.6237288,1.1350254 5.5116937,1.1361607 5.1045877,1.2261355 4.1830508,1.6744416 2.7669979,2.363318 1.6819047,3.6832131 1.2568014,5.2338983 c -0.1687026,0.6153912 -0.1704912,2.162958 -0.00321,2.779661 0.5565776,2.0519217 2.2312639,3.6265457 4.3243897,4.0660077 0.1649931,0.03464 0.7118518,0.05288 1.2152414,0.04054 0.7150936,-0.01753 1.0190414,-0.05558 1.3898305,-0.173973 z"
     id="path17"
     inkscape:connector-curvature="0" />
</svg>
